<svg width="100%" height="100%" id="svg" viewBox="0 0 1440 690" xmlns="http://www.w3.org/2000/svg" class="transition duration-300 ease-in-out delay-150"><defs><linearGradient id="gradient" x1="15%" y1="14%" x2="85%" y2="86%"><stop offset="5%" stop-color="#222831"></stop><stop offset="95%" stop-color="#2b323e"></stop></linearGradient></defs><path d="M 0,700 C 0,700 0,233 0,233 C 43.98357380688124,276.23684794672585 87.96714761376248,319.4736958934517 137,300 C 186.03285238623752,280.5263041065483 240.1149833518313,198.342064372919 293,191 C 345.8850166481687,183.657935627081 397.5729189789123,251.15804661487232 461,264 C 524.4270810210877,276.8419533851277 599.5933407325194,235.02574916759158 657,235 C 714.4066592674806,234.97425083240842 754.0537180910101,276.7389567147613 802,300 C 849.9462819089899,323.2610432852387 906.1917869034405,328.0184239733629 954,317 C 1001.8082130965595,305.9815760266371 1041.1791342952276,279.18734739178694 1096,240 C 1150.8208657047724,200.81265260821309 1221.0916759156491,149.23218645948944 1281,146 C 1340.9083240843509,142.76781354051056 1390.4541620421755,187.8839067702553 1440,233 C 1440,233 1440,700 1440,700 Z" stroke="none" stroke-width="0" fill="url(#gradient)" fill-opacity="0.53" class="transition-all duration-300 ease-in-out delay-150 path-0"></path><defs><linearGradient id="gradient" x1="15%" y1="14%" x2="85%" y2="86%"><stop offset="5%" stop-color="#222831"></stop><stop offset="95%" stop-color="#2b323e"></stop></linearGradient></defs><path d="M 0,700 C 0,700 0,466 0,466 C 42.737501541497096,420.2990751017388 85.47500308299419,374.5981502034776 137,384 C 188.5249969170058,393.4018497965224 248.83748920952024,457.90647428782836 301,488 C 353.16251079047976,518.0935257121716 397.17504007892467,513.775952645209 461,514 C 524.8249599210753,514.224047354791 608.4623504747811,518.9897151313355 665,520 C 721.5376495252189,521.0102848686645 750.975558021951,518.2651868294488 799,506 C 847.024441978049,493.73481317055126 913.6354174374153,471.9495375508695 974,481 C 1034.3645825625847,490.0504624491305 1088.4827722283883,529.9366629670736 1134,535 C 1179.5172277716117,540.0633370329264 1216.433493649032,510.3038105808361 1266,493 C 1315.566506350968,475.6961894191639 1377.7832531754839,470.8480947095819 1440,466 C 1440,466 1440,700 1440,700 Z" stroke="none" stroke-width="0" fill="url(#gradient)" fill-opacity="1" class="transition-all duration-300 ease-in-out delay-150 path-1"></path></svg>